<svg version="1.1" id="Layer_1" xmlns="http://www.w3.org/2000/svg" xmlns:xlink="http://www.w3.org/1999/xlink" x="0px" y="0px"
	 width="100%" viewBox="0 0 514 372" enable-background="new 0 0 514 372" xml:space="preserve">
<path fill="#FEFFFF" opacity="1.000000" stroke="none" 
	d="
M482.999084,306.504578 
	C439.521271,260.107239 396.043488,213.709915 352.291168,167.019623 
	C398.336792,117.810555 443.975403,69.036499 489.613983,20.262436 
	C489.392303,19.841705 489.170624,19.420975 488.948944,19.000244 
	C487.199188,19.000244 485.449432,19.000244 483.699677,19.000244 
	C452.366852,19.000244 421.033081,19.126112 389.702118,18.885052 
	C384.013580,18.841284 379.987823,20.644579 376.183838,24.733944 
	C344.416382,58.884632 312.504089,92.900566 280.644562,126.965645 
	C247.533859,162.368546 214.406281,197.755783 181.382217,233.239349 
	C178.871246,235.937332 176.285934,236.945068 172.668106,236.911148 
	C156.003174,236.754837 139.335968,236.842224 122.669571,236.842224 
	C120.902985,236.842224 119.136398,236.842224 117.254059,236.842224 
	C117.254059,189.520035 117.254059,142.925552 117.254059,95.716530 
	C119.276398,95.716530 121.052383,95.716530 122.828369,95.716530 
	C142.828033,95.716507 162.829483,95.845528 182.825378,95.570580 
	C185.666519,95.531509 189.291306,94.302940 191.183472,92.318604 
	C213.023880,69.414207 234.605804,46.263226 256.225800,23.149134 
	C257.130920,22.181480 257.736053,20.933290 258.799896,19.337341 
	C182.655533,19.337341 107.444000,19.337341 32.296101,19.337341 
	C32.160892,19.989798 32.037777,20.306528 32.037724,20.623280 
	C32.019875,121.954651 32.029064,223.286041 31.932684,324.617340 
	C31.928844,328.653229 33.731232,329.212708 37.110310,329.208801 
	C94.109291,329.142609 151.108566,329.212372 208.106873,329.004852 
	C210.839584,328.994904 214.382507,327.415649 216.166809,325.365173 
	C236.055984,302.508820 255.666397,279.410004 275.366943,256.389313 
	C281.688568,249.002274 288.054199,241.652924 295.123871,233.445648 
	C296.193604,235.047440 296.723419,236.136108 297.513672,236.981247 
	C323.568481,264.845093 349.686401,292.650055 375.679932,320.570892 
	C379.257080,324.413269 382.950012,327.074310 388.505615,327.050262 
	C424.500946,326.894501 460.496918,326.895172 496.492645,326.820496 
	C497.726593,326.817932 498.960022,326.560608 501.324310,326.295013 
	C494.922516,319.368805 489.210327,313.188660 482.999084,306.504578 
z"/>
<path fill="#00DF78" opacity="1.000000" stroke="none" 
	d="
M483.248596,306.756531 
	C489.210327,313.188660 494.922516,319.368805 501.324310,326.295013 
	C498.960022,326.560608 497.726593,326.817932 496.492645,326.820496 
	C460.496918,326.895172 424.500946,326.894501 388.505615,327.050262 
	C382.950012,327.074310 379.257080,324.413269 375.679932,320.570892 
	C349.686401,292.650055 323.568481,264.845093 297.513672,236.981247 
	C296.723419,236.136108 296.193604,235.047440 295.123871,233.445648 
	C288.054199,241.652924 281.688568,249.002274 275.366943,256.389313 
	C255.666397,279.410004 236.055984,302.508820 216.166809,325.365173 
	C214.382507,327.415649 210.839584,328.994904 208.106873,329.004852 
	C151.108566,329.212372 94.109291,329.142609 37.110310,329.208801 
	C33.731232,329.212708 31.928844,328.653229 31.932684,324.617340 
	C32.029064,223.286041 32.019875,121.954651 32.037724,20.623280 
	C32.037777,20.306528 32.160892,19.989798 32.296101,19.337341 
	C107.444000,19.337341 182.655533,19.337341 258.799896,19.337341 
	C257.736053,20.933290 257.130920,22.181480 256.225800,23.149134 
	C234.605804,46.263226 213.023880,69.414207 191.183472,92.318604 
	C189.291306,94.302940 185.666519,95.531509 182.825378,95.570580 
	C162.829483,95.845528 142.828033,95.716507 122.828369,95.716530 
	C121.052383,95.716530 119.276398,95.716530 117.254059,95.716530 
	C117.254059,142.925552 117.254059,189.520035 117.254059,236.842224 
	C119.136398,236.842224 120.902985,236.842224 122.669571,236.842224 
	C139.335968,236.842224 156.003174,236.754837 172.668106,236.911148 
	C176.285934,236.945068 178.871246,235.937332 181.382217,233.239349 
	C214.406281,197.755783 247.533859,162.368546 280.644562,126.965645 
	C312.504089,92.900566 344.416382,58.884632 376.183838,24.733944 
	C379.987823,20.644579 384.013580,18.841284 389.702118,18.885052 
	C421.033081,19.126112 452.366852,19.000244 483.699677,19.000244 
	C485.449432,19.000244 487.199188,19.000244 488.948944,19.000244 
	C489.170624,19.420975 489.392303,19.841705 489.613983,20.262436 
	C443.975403,69.036499 398.336792,117.810555 352.291168,167.019623 
	C396.043488,213.709915 439.521271,260.107239 483.248596,306.756531 
z"/>
</svg>