<svg version="1.1" id="Layer_1" xmlns="http://www.w3.org/2000/svg" xmlns:xlink="http://www.w3.org/1999/xlink" x="0px" y="0px"
	 width="100%" viewBox="0 0 804 310" enable-background="new 0 0 804 310" xml:space="preserve">
<path fill="#FEFEFE" opacity="0" stroke="none" 
	d="
M499.000000,311.000000 
	C332.703857,311.000000 166.907745,311.000000 1.055808,311.000000 
	C1.055808,207.727081 1.055808,104.454124 1.055808,1.090582 
	C268.879456,1.090582 536.758911,1.090582 804.819214,1.090582 
	C804.819214,104.333084 804.819214,207.666504 804.819214,311.000000 
	C703.120789,311.000000 601.310425,311.000000 499.000000,311.000000 
M83.357132,112.051926 
	C82.522621,112.660973 81.688110,113.270027 80.978638,113.937485 
	C80.978638,113.937485 80.885567,113.835579 80.186066,113.947243 
	C76.774094,115.951759 73.362122,117.956276 69.993973,120.002556 
	C69.993973,120.002556 69.972672,119.946037 69.425041,120.009537 
	C69.188736,120.267464 68.952431,120.525391 68.819466,120.740845 
	C68.819466,120.740845 68.721207,120.687645 68.042503,120.828087 
	C65.290169,122.486763 62.537838,124.145439 59.951469,125.829071 
	C59.951469,125.829071 59.805496,125.746262 59.109272,125.883949 
	C53.315948,127.765953 52.040890,131.687119 52.094265,137.658630 
	C52.424351,174.587265 52.268112,211.520279 52.273369,248.451828 
	C52.273621,250.199173 52.273396,251.946503 52.273396,254.729691 
	C55.142159,252.831909 57.151802,251.502457 59.828342,250.053055 
	C61.655865,248.846619 63.483387,247.640182 65.394424,246.443069 
	C65.394424,246.443069 65.477577,246.455246 66.121368,246.260330 
	C72.107437,242.528030 78.093498,238.795731 84.001480,235.007828 
	C84.001480,235.007828 84.059975,235.083817 84.742874,234.965652 
	C87.219444,233.357803 89.696014,231.749954 92.034714,230.089920 
	C92.034714,230.089920 92.140694,230.192368 92.825668,230.042908 
	C97.783958,227.112534 102.742241,224.182159 108.795250,220.604782 
	C108.795250,242.815308 108.795250,263.912903 108.795250,285.526794 
	C110.275818,284.906372 110.903397,284.717041 111.458267,284.400330 
	C141.061386,267.502777 170.684540,250.639771 200.180923,233.557816 
	C201.703583,232.676025 202.923111,229.924316 202.951950,228.022980 
	C203.179108,213.042679 203.082108,198.057480 203.084412,183.073776 
	C203.085190,177.988647 203.084534,172.903519 203.084534,166.912888 
	C171.235291,185.116272 140.211884,202.847641 108.204422,221.141449 
	C108.204422,218.193451 108.203720,216.582779 108.204529,214.972107 
	C108.211327,201.487152 108.722733,187.976944 108.049660,174.526016 
	C107.594170,165.423309 108.608177,158.128723 118.724838,155.360718 
	C118.998871,155.285751 119.188980,154.904068 119.583649,154.619003 
	C119.583649,154.619003 119.746658,154.564728 120.377014,154.406769 
	C125.666672,151.358551 130.956314,148.310349 136.198105,145.325882 
	C136.198105,145.325882 136.277817,145.324387 136.969986,145.215408 
	C147.041321,139.531372 157.112671,133.847336 167.037079,128.124496 
	C167.037079,128.124496 167.156570,128.218384 167.811310,128.126190 
	C168.900299,127.438690 169.989304,126.751190 170.999664,126.011078 
	C170.999664,126.011078 171.057526,126.085991 171.765686,125.989655 
	C176.939301,123.030251 182.112915,120.070847 187.694412,117.104813 
	C187.694412,117.104813 187.991135,116.824837 188.575714,116.807053 
	C189.504791,116.167007 190.433884,115.526962 191.731323,114.844696 
	C191.731323,114.844696 191.959976,114.552834 192.709946,114.410339 
	C195.166840,112.959656 197.623734,111.508972 200.010818,110.005188 
	C200.010818,110.005188 200.049850,110.083740 200.838654,109.938522 
	C201.588364,108.139114 202.974731,106.345001 202.989731,104.539497 
	C203.146423,85.662277 203.090622,66.783234 203.063522,47.904728 
	C203.061798,46.700584 202.810135,45.496807 202.595657,43.589615 
	C199.969940,45.297737 197.942993,46.616341 195.996994,47.987713 
	C195.996994,47.987713 195.940704,47.909157 195.240158,48.018063 
	C189.756607,51.282745 184.273056,54.547428 178.959641,57.819515 
	C178.959641,57.819515 178.800476,57.758995 178.115707,57.873158 
	C175.921494,59.200451 173.727264,60.527744 171.188461,61.854736 
	C171.188461,61.854736 170.981201,62.130035 170.451675,62.150059 
	C170.228119,62.406883 170.004562,62.663708 169.226028,62.950073 
	C168.805099,63.270691 168.384186,63.591305 167.274582,64.016747 
	C165.161026,65.324814 163.047485,66.632874 161.003998,67.992203 
	C161.003998,67.992203 160.944809,67.927689 160.249161,68.053513 
	C153.477997,72.019974 146.706833,75.986435 139.992355,80.001343 
	C139.992355,80.001343 139.958954,79.934753 139.259018,80.031425 
	C133.138596,83.660690 127.018181,87.289955 120.994942,90.977577 
	C120.994942,90.977577 120.923706,90.889389 120.223358,90.993301 
	C117.477249,92.655998 114.731140,94.318695 112.000000,96.000000 
	C112.000000,96.000000 111.984268,95.981812 111.437798,96.022675 
	C111.192833,96.270164 110.947876,96.517662 110.805702,96.724037 
	C110.805702,96.724037 110.712227,96.664726 110.033020,96.806099 
	C107.289543,98.479080 104.546059,100.152054 101.962524,101.854485 
	C101.962524,101.854485 101.823448,101.770187 101.139610,101.887215 
	C98.997932,103.222351 96.856262,104.557480 94.284416,105.915962 
	C94.284416,105.915962 93.970078,106.210548 93.477066,106.190384 
	C93.126442,106.316780 92.936562,106.565773 93.004097,106.968658 
	C93.004097,106.968658 92.923080,106.907196 92.254829,106.994049 
	C90.766495,107.931641 89.278160,108.869240 87.949020,109.844398 
	C87.949020,109.844398 87.816521,109.748497 87.170876,109.839645 
	C86.116859,110.558655 85.062843,111.277664 83.999588,111.997757 
	C83.999588,111.997757 83.994553,112.004745 83.357132,112.051926 
M282.174805,139.708923 
	C264.496033,139.913483 252.716934,126.648773 255.114670,109.235794 
	C256.665558,97.972656 264.823700,88.949387 275.318115,87.245216 
	C287.650330,85.242584 298.723969,90.343475 302.157410,101.041153 
	C302.455719,101.970604 303.930237,103.062836 304.924194,103.131836 
	C308.539734,103.382835 312.183228,103.230911 315.847778,103.230911 
	C314.239227,85.823395 297.765991,73.726105 277.190399,74.948769 
	C256.636292,76.170158 241.107605,94.476738 241.726807,114.117676 
	C242.369202,134.494675 258.299255,150.986633 279.381531,151.841125 
	C298.073669,152.598740 314.454407,139.885513 315.874573,123.116112 
	C312.227875,123.116112 308.598999,122.968079 304.996735,123.212471 
	C304.004150,123.279823 302.559479,124.324875 302.223755,125.248871 
	C298.937866,134.292633 292.143463,138.478592 282.174805,139.708923 
M281.716309,208.365128 
	C289.902924,198.198624 298.089508,188.032104 306.899445,177.091522 
	C303.104797,177.091522 300.295959,177.420105 297.595490,177.019028 
	C292.847565,176.313873 290.069672,178.432526 287.314087,182.080536 
	C279.391144,192.569321 271.078278,202.763931 262.887909,213.049713 
	C262.280579,213.812439 261.429016,214.380661 259.976624,215.676834 
	C259.976624,202.236282 259.976624,189.832214 259.976624,177.307617 
	C255.534195,177.307617 251.462524,177.307617 247.288910,177.307617 
	C247.288910,201.919815 247.288910,226.278214 247.288910,250.616394 
	C251.709732,250.616394 255.782547,250.616394 260.915710,250.616394 
	C256.817719,237.484512 262.933746,228.290985 272.125946,219.895432 
	C279.018250,229.249191 285.846771,238.620178 292.829773,247.874603 
	C293.810211,249.173935 295.480774,250.623474 296.946533,250.758438 
	C301.157196,251.146133 305.426636,250.895142 310.426849,250.895142 
	C309.061890,248.913971 308.182129,247.571091 307.237122,246.275818 
	C299.195129,235.252960 291.114563,224.258087 283.128662,213.194839 
	C282.241882,211.966354 281.874329,210.363022 281.716309,208.365128 
M382.943909,144.396072 
	C382.943909,127.974205 382.943909,111.552345 382.943909,94.935501 
	C378.708984,94.935501 374.963593,94.935501 370.659821,94.935501 
	C370.659821,97.604942 370.659821,100.108383 370.659821,102.366730 
	C367.281494,99.812035 364.449982,96.877747 361.005310,95.209488 
	C348.980164,89.385666 335.527100,94.033699 328.437561,106.036530 
	C317.742889,124.142860 327.273468,148.325623 346.542206,151.574432 
	C356.034363,153.174850 364.004852,149.964691 370.770233,141.354523 
	C370.770233,145.015839 370.770233,147.398529 370.770233,149.947510 
	C374.994659,149.947510 378.736389,149.947510 382.932037,149.947510 
	C382.932037,148.274872 382.932037,146.823425 382.943909,144.396072 
M666.827271,94.368919 
	C652.856750,90.447472 641.297180,95.266090 634.944458,107.659286 
	C628.351746,120.520569 631.596008,137.749420 642.249329,146.389023 
	C647.708313,150.816162 654.001404,152.533707 660.918457,151.770050 
	C667.753052,151.015472 673.346252,147.812851 678.149414,141.187485 
	C678.149414,144.954514 678.149414,147.357605 678.149414,149.824860 
	C682.414917,149.824860 686.299622,149.824860 690.072266,149.824860 
	C690.072266,131.379089 690.072266,113.277290 690.072266,95.088989 
	C685.955078,95.088989 682.088928,95.088989 677.711914,95.088989 
	C677.711914,97.778214 677.711914,100.093773 677.711914,101.783432 
	C674.250549,99.395081 670.885132,97.072891 666.827271,94.368919 
M486.941925,135.425919 
	C493.258514,147.477325 504.921265,153.708252 517.274902,151.631607 
	C528.618591,149.724716 537.602173,142.045517 538.849915,132.971085 
	C535.164978,132.971085 531.504761,132.843430 527.863403,133.048599 
	C526.765625,133.110443 525.350403,133.826920 524.710510,134.703400 
	C520.598877,140.335358 514.969238,141.503632 508.732544,139.916748 
	C501.897522,138.177628 498.499725,133.124908 497.021545,125.892105 
	C511.729370,125.892105 526.119812,125.892105 540.408813,125.892105 
	C542.823242,113.008713 536.144714,99.907745 524.656067,95.256447 
	C513.165771,90.604492 502.407593,92.188644 493.148926,100.688980 
	C484.044067,109.048058 481.719055,121.946335 486.941925,135.425919 
M456.493469,226.296860 
	C460.975037,226.296860 465.456573,226.296860 469.855133,226.296860 
	C472.879120,212.233414 463.568848,197.639099 449.771057,194.321182 
	C434.135223,190.561310 418.757294,199.545166 414.782379,214.761871 
	C410.487305,231.203949 419.023804,247.104156 434.554565,251.589905 
	C449.110870,255.794189 464.364136,248.053070 468.718353,234.034714 
	C467.386261,233.965866 466.107880,233.833847 464.830841,233.845413 
	C459.851654,233.890457 455.085388,233.034500 451.177612,238.281311 
	C448.054352,242.474869 439.618225,242.125595 434.415375,238.993622 
	C429.758331,236.190201 427.225708,232.095001 426.940552,226.272430 
	C436.865997,226.272430 446.180756,226.272430 456.493469,226.296860 
M357.201202,195.089371 
	C354.280457,195.089371 351.359741,195.089371 348.452393,195.089371 
	C348.452393,214.047852 348.452393,232.291046 348.452393,250.593567 
	C352.804413,250.593567 356.856628,250.593567 361.138855,250.593567 
	C361.138855,241.116013 360.924377,231.961151 361.250793,222.825607 
	C361.371307,219.452454 362.221954,215.860275 363.695068,212.832901 
	C366.531250,207.004349 373.127441,204.287231 379.267395,205.683517 
	C385.524719,207.106491 388.591553,210.991669 389.097137,218.306747 
	C389.269104,220.795319 389.266205,223.298737 389.272247,225.795517 
	C389.292175,234.066803 389.279785,242.338150 389.279785,250.694427 
	C393.820160,250.694427 397.742432,250.694427 402.099731,250.694427 
	C402.099731,240.508896 402.113037,230.560867 402.089233,220.612930 
	C402.084045,218.450592 402.134491,216.262405 401.838715,214.130615 
	C399.724884,198.895813 390.391541,191.422302 375.516937,194.164505 
	C370.346863,195.117599 365.660919,198.696564 360.336578,201.278595 
	C358.847198,200.244583 363.312622,195.517776 357.201202,195.089371 
M718.250549,99.719681 
	C718.175049,98.136803 718.099609,96.553932 718.029358,95.080948 
	C713.841980,95.080948 710.114258,95.080948 706.283325,95.080948 
	C706.283325,113.521187 706.283325,131.601273 706.283325,149.925201 
	C710.554199,149.925201 714.609436,149.925201 719.046570,149.925201 
	C719.046570,141.766022 718.936096,133.810989 719.096130,125.861427 
	C719.169128,122.235031 719.291443,118.486320 720.241699,115.026642 
	C722.207214,107.871063 728.819092,104.004486 736.486572,104.923935 
	C742.944641,105.698357 746.526733,110.027794 747.087646,117.859138 
	C747.265869,120.347610 747.318176,122.849083 747.327026,125.344963 
	C747.355774,133.463669 747.337830,141.582520 747.337830,149.839127 
	C751.823364,149.839127 755.863342,149.839127 760.115906,149.839127 
	C760.115906,139.708603 760.119995,129.904770 760.111511,120.100952 
	C760.110168,118.602951 760.104004,117.101616 760.009460,115.607559 
	C759.034546,100.205940 750.206116,91.976990 735.576111,92.966698 
	C729.707764,93.363693 724.698120,95.711044 720.697632,100.155952 
	C720.271362,100.629555 719.086792,100.420761 718.250549,99.719681 
M630.958252,214.661194 
	C628.065918,209.908051 629.219849,206.014420 633.982666,204.455719 
	C639.083313,202.786469 644.011230,204.659607 646.927063,209.148209 
	C647.503845,210.036133 648.752625,210.946625 649.750610,211.017700 
	C653.040161,211.251984 656.356689,211.105927 659.979004,211.105927 
	C659.568604,204.735046 656.945435,200.171600 651.880920,197.188309 
	C644.553894,192.872284 636.608398,192.700806 628.681152,194.824448 
	C620.830444,196.927582 616.829468,202.345657 616.644714,209.992905 
	C616.448792,218.098648 619.730591,222.925156 627.765137,225.721100 
	C630.883423,226.806213 634.218567,227.262070 637.445862,228.042007 
	C639.856995,228.624695 642.404297,228.937469 644.625488,229.951752 
	C649.343262,232.106018 649.662659,237.781403 645.426941,240.776413 
	C639.830627,244.733429 629.987061,242.098892 626.991638,235.908722 
	C626.551208,234.998627 625.715942,233.661850 624.989563,233.612610 
	C621.455872,233.373047 617.896973,233.504349 614.171875,233.504349 
	C615.041138,242.820724 619.539368,248.846390 627.444885,250.700424 
	C633.731689,252.174820 640.710205,252.444183 647.080994,251.405075 
	C656.533020,249.863403 661.798157,242.835983 661.736389,234.434738 
	C661.674255,225.984177 656.926392,221.130325 646.576233,218.771896 
	C641.570618,217.631287 636.603088,216.323059 630.958252,214.661194 
M595.309143,136.825211 
	C596.163513,125.835342 592.314880,120.660736 581.240234,118.073441 
	C576.551636,116.978088 571.702209,116.401054 567.181458,114.845520 
	C565.488770,114.263115 563.401489,111.494743 563.511230,109.858284 
	C563.645691,107.852615 565.473633,105.197701 567.312622,104.216721 
	C572.202209,101.608452 577.692749,103.714249 580.987793,108.569817 
	C581.528137,109.366051 582.625000,110.219284 583.509521,110.270386 
	C586.924133,110.467651 590.356934,110.350487 594.042175,110.350487 
	C593.633606,104.468887 591.476318,100.088219 587.001892,97.253189 
	C578.001160,91.550194 568.454407,91.218071 558.921143,95.678383 
	C552.854309,98.516876 550.570312,103.913399 550.617920,110.443993 
	C550.663879,116.752449 553.437134,121.401161 559.230042,123.840881 
	C562.564087,125.245010 566.170776,126.022598 569.684387,126.972504 
	C572.397888,127.706093 575.465454,127.732491 577.801575,129.073395 
	C579.757874,130.196259 582.202881,132.885071 582.042358,134.665070 
	C581.842468,136.882584 579.622192,139.883621 577.518127,140.789001 
	C570.180847,143.946320 563.716064,140.813049 559.958435,133.113159 
	C556.121643,133.113159 552.322876,133.113159 547.162781,133.113159 
	C549.285156,137.431946 550.425354,141.564575 552.939148,144.534546 
	C561.165039,154.253143 582.366089,154.654572 591.100098,145.389740 
	C593.035217,143.337021 593.862122,140.239532 595.309143,136.825211 
M552.135437,233.124313 
	C557.908325,247.378586 569.083313,254.085251 583.953003,252.219696 
	C595.562683,250.763138 605.102844,241.818558 606.491028,230.856445 
	C603.144348,230.856445 599.814331,230.680237 596.520447,230.948792 
	C595.312500,231.047256 593.793518,231.919693 593.092957,232.915176 
	C588.135620,239.959045 581.553650,242.445190 574.192139,239.813446 
	C567.170959,237.303375 562.505432,229.411621 563.314209,221.413467 
	C564.073303,213.906311 568.511230,208.100357 575.003296,206.120834 
	C581.908020,204.015503 587.750916,206.301483 593.163635,213.020752 
	C593.871155,213.899033 595.209167,214.686905 596.304321,214.757965 
	C599.732605,214.980423 603.184509,214.839722 606.702332,214.839722 
	C605.515747,208.791763 602.682007,203.994751 598.228394,200.196411 
	C588.947449,192.281006 573.960388,191.348282 563.753723,198.050827 
	C552.754211,205.274048 548.069275,218.868561 552.135437,233.124313 
M448.944214,107.659515 
	C448.949097,115.820572 448.820770,123.984436 448.992493,132.141983 
	C449.209076,142.430298 453.897980,148.558167 463.062836,149.785736 
	C468.065826,150.455856 473.232300,149.905396 478.455261,149.905396 
	C478.455261,146.435211 478.455261,143.335083 478.455261,139.742493 
	C475.632996,139.742493 473.003540,139.854202 470.386841,139.718826 
	C465.220337,139.451523 462.239990,137.084808 462.079681,132.258255 
	C461.788452,123.491402 461.997070,114.707947 461.997070,105.497543 
	C467.630951,105.497543 472.895111,105.497543 478.273682,105.497543 
	C478.273682,101.695656 478.273682,98.341858 478.273682,94.530106 
	C472.659576,94.530106 467.423920,94.530106 461.723419,94.530106 
	C461.723419,88.824364 461.723419,83.578056 461.723419,78.278419 
	C457.302582,78.278419 453.375610,78.278419 448.981567,78.278419 
	C448.981567,83.752808 448.981567,89.010246 448.981567,94.712181 
	C444.916138,94.712181 441.308014,94.712181 437.590332,94.712181 
	C437.590332,98.536781 437.590332,101.902275 437.590332,104.935753 
	C441.617188,105.560287 445.251465,106.123932 448.944214,107.659515 
M498.063202,214.594467 
	C498.063202,211.975861 498.063202,209.357254 498.063202,206.177429 
	C503.919281,206.177429 509.308563,206.177429 514.671875,206.177429 
	C514.671875,202.203522 514.671875,198.807648 514.671875,194.857346 
	C508.987030,194.857346 503.605499,194.857346 497.869324,194.857346 
	C497.869324,189.203064 497.869324,184.113571 497.869324,179.242599 
	C493.410553,179.242599 489.349457,179.242599 484.870300,179.242599 
	C484.870300,184.674744 484.870300,189.753021 484.870300,195.127930 
	C480.990601,195.127930 477.540741,195.127930 473.839722,195.127930 
	C473.839722,198.872101 473.839722,202.304825 473.839722,206.269653 
	C477.554840,206.269653 481.129852,206.269653 485.075928,206.269653 
	C485.075928,209.263260 485.009613,211.733154 485.088226,214.198425 
	C485.337097,222.002213 485.408875,229.821777 485.998444,237.601196 
	C486.438934,243.414093 489.753235,248.020798 495.358215,249.308655 
	C501.644958,250.753143 508.258545,250.775208 514.997009,251.442627 
	C514.997009,248.444656 515.027344,246.783768 514.988281,245.124527 
	C514.950928,243.539490 514.841309,241.956146 514.754089,240.181122 
	C512.421143,240.181122 510.604156,240.183762 508.787201,240.180695 
	C500.535950,240.166794 498.124512,237.790695 498.069275,229.553391 
	C498.038055,224.892227 498.063385,220.230713 498.063202,214.594467 
M415.450714,111.098991 
	C419.561676,105.418152 425.875305,105.465485 431.902832,105.404938 
	C431.902832,101.510658 431.902832,98.256775 431.902832,95.033630 
	C423.515167,93.860878 416.236755,95.018822 411.687592,103.728859 
	C411.428589,103.283142 411.169617,102.837425 410.910645,102.391708 
	C410.910645,99.954681 410.910645,97.517654 410.910645,95.067345 
	C406.728638,95.067345 402.848694,95.067345 399.065704,95.067345 
	C399.065704,113.515594 399.065704,131.620956 399.065704,149.820251 
	C403.342468,149.820251 407.376709,149.820251 411.737122,149.820251 
	C411.737122,141.166702 411.380554,132.840408 411.883087,124.566292 
	C412.146149,120.234810 413.917542,115.994949 415.450714,111.098991 
M538.888733,238.482880 
	C538.888733,224.067444 538.888733,209.652008 538.888733,195.344147 
	C534.162048,195.344147 530.223572,195.344147 526.285645,195.344147 
	C526.285645,213.998932 526.285645,232.371536 526.285645,250.635742 
	C530.603821,250.635742 534.535583,250.635742 538.885864,250.635742 
	C538.885864,246.732361 538.885864,243.103012 538.888733,238.482880 
M619.860718,111.501854 
	C619.860718,106.056053 619.860718,100.610260 619.860718,94.994583 
	C615.305359,94.994583 611.257935,94.994583 607.201172,94.994583 
	C607.201172,113.484161 607.201172,131.688110 607.201172,149.777374 
	C611.554871,149.777374 615.593750,149.777374 619.859619,149.777374 
	C619.859619,137.089218 619.859619,124.795311 619.860718,111.501854 
M319.834229,247.349594 
	C319.596100,249.593094 319.815491,251.218109 322.861694,250.952103 
	C325.944855,250.682861 329.069824,250.892715 332.233429,250.892715 
	C332.233429,232.029526 332.233429,213.767288 332.233429,195.313538 
	C328.066040,195.313538 324.154449,195.313538 319.836517,195.313538 
	C319.836517,212.484756 319.836517,229.432281 319.834229,247.349594 
M606.905945,83.475464 
	C606.905945,85.383728 606.905945,87.292000 606.905945,89.235847 
	C611.566040,89.235847 615.502258,89.235847 619.645691,89.235847 
	C619.645691,85.012810 619.645691,81.077667 619.645691,76.865387 
	C615.404663,76.865387 611.309509,76.865387 606.907593,76.865387 
	C606.907593,78.907997 606.907593,80.725990 606.905945,83.475464 
M525.932007,182.548538 
	C525.932007,184.965439 525.932007,187.382339 525.932007,189.791489 
	C530.520325,189.791489 534.443115,189.791489 538.603149,189.791489 
	C538.603149,185.523209 538.603149,181.482025 538.603149,177.360229 
	C534.261169,177.360229 530.212830,177.360229 525.917908,177.360229 
	C525.917908,178.973541 525.917908,180.282410 525.932007,182.548538 
M319.967773,177.729156 
	C319.967773,181.672058 319.967773,185.614975 319.967773,189.663757 
	C324.224609,189.663757 328.233276,189.663757 332.073517,189.663757 
	C332.073517,185.266586 332.073517,181.219864 332.073517,177.118103 
	C328.004547,177.118103 324.354584,177.118103 319.967773,177.729156 
z"/>
<path fill="#01DC82" opacity="1.000000" stroke="none" 
	d="
M170.981201,62.130039 
	C170.981201,62.130035 171.188461,61.854736 171.831329,61.894905 
	C175.561874,62.118778 178.649567,62.302475 182.548157,62.534412 
	C180.855881,60.378063 179.828186,59.068527 178.800476,57.758995 
	C178.800476,57.758995 178.959641,57.819515 179.291458,57.875935 
	C181.991501,57.890305 185.077469,58.779808 186.583878,57.619186 
	C190.105865,54.905640 192.869797,51.208176 195.940704,47.909157 
	C195.940704,47.909157 195.996994,47.987713 196.373657,47.985081 
	C200.874451,47.796158 202.131607,49.820602 202.069809,53.824837 
	C201.871857,66.648369 202.045090,79.477211 201.955826,92.303185 
	C201.937637,94.917343 203.144394,98.056427 199.595932,99.721313 
	C199.241760,99.887489 199.226532,102.098068 199.595947,102.284203 
	C204.374832,104.692055 200.783707,107.457275 200.049850,110.083740 
	C200.049850,110.083740 200.010818,110.005188 199.650970,110.010269 
	C194.975479,108.503410 192.581482,110.096245 191.959976,114.552834 
	C191.959976,114.552834 191.731323,114.844696 191.407715,114.514824 
	C187.566025,112.150932 188.386932,115.200661 187.991135,116.824837 
	C187.991135,116.824837 187.694412,117.104813 187.089294,117.077209 
	C182.331024,118.071983 178.177872,119.094360 173.427155,120.263832 
	C172.868896,121.635483 171.963211,123.860733 171.057526,126.085991 
	C171.057526,126.085991 170.999664,126.011078 170.647308,126.015831 
	C169.248810,126.753181 168.202682,127.485779 167.156570,128.218384 
	C167.156570,128.218384 167.037079,128.124496 166.675812,128.090149 
	C161.364655,128.082489 156.855438,129.066406 154.235291,133.327393 
	C151.988541,133.569778 149.994568,133.784882 147.681244,133.975525 
	C146.574219,133.633820 145.786560,133.316605 144.935989,132.646149 
	C143.311462,131.631744 141.785767,130.839462 140.164673,130.395355 
	C139.722183,130.274139 138.992981,131.199539 138.395355,131.644623 
	C138.930237,132.096619 139.465118,132.548615 139.967896,133.345947 
	C139.624084,134.794601 139.312347,135.897919 139.004471,137.353973 
	C139.218292,138.938507 139.428268,140.170273 139.638245,141.402054 
	C139.125671,141.273544 138.613098,141.145035 138.100540,141.016541 
	C137.492966,142.452484 136.885391,143.888443 136.277817,145.324387 
	C136.277817,145.324387 136.198105,145.325882 135.805481,145.209045 
	C132.125122,146.528076 128.896240,148.131226 125.521164,149.318771 
	C124.141090,149.804352 122.365273,149.683945 120.917595,149.292068 
	C119.789993,148.986847 118.891624,147.834702 117.847794,147.025131 
	C113.166496,151.284210 119.448746,152.051346 119.746658,154.564728 
	C119.746658,154.564728 119.583649,154.619003 119.068451,154.431961 
	C114.569427,154.804489 110.325089,150.971542 107.236763,155.011002 
	C107.516388,157.430817 107.215958,159.466064 106.589699,161.395538 
	C105.878685,163.586151 104.161301,165.667938 104.118492,167.821609 
	C103.874428,180.099075 104.047417,192.384201 103.963860,204.665939 
	C103.943787,207.616547 102.290474,211.003708 106.918251,211.869583 
	C106.416451,214.305420 105.990570,216.372665 105.561714,218.454376 
	C104.174889,218.827652 101.834167,219.228256 101.849663,219.488495 
	C102.032410,222.556671 98.659027,222.429535 98.068344,223.567459 
	C96.581177,226.432373 90.818939,225.278687 92.140694,230.192368 
	C92.140694,230.192368 92.034714,230.089920 91.679726,230.070114 
	C88.323112,230.890991 83.549919,229.174789 84.059975,235.083817 
	C84.059975,235.083817 84.001480,235.007828 83.638008,235.013962 
	C81.838852,235.350983 80.291107,235.444717 78.989624,236.059647 
	C75.778664,237.576828 72.835068,239.854111 69.493179,240.844406 
	C66.258919,241.802780 65.099472,243.347733 65.477577,246.455246 
	C65.477577,246.455246 65.394424,246.443069 64.962097,246.294434 
	C62.973450,244.264130 61.417137,242.382477 59.595268,240.179764 
	C59.361729,241.285965 59.180794,242.142975 58.603886,242.909134 
	C57.805305,241.321396 56.959309,239.788391 57.077847,238.333984 
	C57.556915,232.456161 58.886246,226.599487 58.853931,220.740799 
	C58.816990,214.043762 57.172832,207.358841 57.091831,200.658203 
	C56.840725,179.886520 57.037205,159.109711 56.955654,138.335312 
	C56.944748,135.556473 56.333199,132.780014 56.304024,129.853241 
	C57.674000,128.384781 58.739750,127.065521 59.805496,125.746262 
	C59.805496,125.746262 59.951469,125.829071 60.308617,125.880371 
	C63.912910,126.280502 67.160065,126.629333 70.761505,127.016220 
	C69.891350,124.317184 69.306274,122.502419 68.721207,120.687645 
	C68.721207,120.687645 68.819466,120.740845 69.042709,120.740280 
	C69.501534,120.475151 69.737106,120.210594 69.972672,119.946037 
	C69.972672,119.946037 69.993973,120.002556 70.332527,120.002632 
	C71.969643,120.526451 73.268204,121.050186 74.609146,121.591011 
	C76.727577,118.973381 78.806572,116.404480 80.885567,113.835579 
	C80.885567,113.835579 80.978638,113.937485 81.281586,113.943253 
	C82.387878,113.300919 83.191216,112.652832 83.994553,112.004745 
	C83.994553,112.004745 83.999588,111.997757 84.390762,112.000664 
	C85.793465,111.251877 86.804993,110.500183 87.816521,109.748497 
	C87.816521,109.748497 87.949020,109.844398 88.293594,109.887642 
	C90.830971,110.006371 93.333527,110.520805 92.923080,106.907196 
	C92.923080,106.907196 93.004097,106.968658 93.174583,106.901192 
	C93.630875,106.703705 93.839211,106.495979 93.970078,106.210548 
	C93.970078,106.210548 94.284416,105.915962 94.907166,105.937057 
	C98.150734,106.885544 100.771561,107.812935 103.493279,108.776024 
	C102.843407,106.049461 102.333427,103.909821 101.823448,101.770187 
	C101.823448,101.770187 101.962524,101.854485 102.304482,101.896416 
	C111.166489,102.474953 111.166489,102.474953 110.712227,96.664726 
	C110.712227,96.664726 110.805702,96.724037 111.028641,96.733597 
	C111.495811,96.489380 111.740036,96.235596 111.984268,95.981812 
	C111.984268,95.981812 112.000000,96.000000 112.405617,95.999771 
	C116.742104,96.243584 120.112656,95.598129 120.923706,90.889389 
	C120.923706,90.889389 120.994942,90.977577 121.352692,90.969398 
	C128.710327,88.402359 133.887848,92.891464 139.867615,96.100304 
	C140.695816,94.105324 141.382751,92.450638 142.595703,89.528885 
	C140.403091,90.653717 139.292953,91.651367 138.793060,91.405960 
	C136.566086,90.312668 134.513611,88.863922 132.398087,87.543640 
	C133.247772,86.560287 134.354828,84.601723 134.906555,84.747337 
	C139.463043,85.949905 139.294724,82.570328 139.958954,79.934753 
	C139.958954,79.934753 139.992355,80.001343 140.368256,79.994034 
	C148.761292,78.706863 154.684875,73.636246 160.777390,68.884636 
	C160.966782,68.736931 160.894897,68.254219 160.944809,67.927689 
	C160.944809,67.927689 161.003998,67.992203 161.390900,67.987946 
	C163.185196,67.989128 164.592606,67.994568 165.959503,68.356110 
	C164.699387,69.814644 163.479767,70.917061 161.972015,72.279915 
	C168.006592,72.976257 169.289062,72.050354 169.355652,67.337029 
	C168.220703,67.561264 167.110352,67.780632 166.048767,67.666092 
	C166.719437,66.192101 167.341354,65.052010 167.963257,63.911922 
	C168.384186,63.591305 168.805099,63.270691 169.750732,62.885929 
	C170.510696,62.591206 170.745956,62.360622 170.981201,62.130039 
M171.892639,113.549911 
	C166.951981,112.929993 170.889694,117.547935 169.698029,117.946060 
	C170.068787,117.103302 175.297897,118.628952 171.892639,113.549911 
M69.119118,226.652359 
	C70.389595,229.790741 72.300453,230.934036 76.449020,228.229691 
	C73.483513,227.305374 71.350426,226.640533 69.119118,226.652359 
M80.985161,228.448135 
	C79.975052,227.878159 78.964935,227.308182 77.954826,226.738205 
	C77.843307,227.612122 77.731789,228.486023 77.620270,229.359924 
	C78.736496,229.280487 79.852715,229.201065 80.985161,228.448135 
M112.221619,149.644211 
	C111.994820,146.866348 111.994820,146.866348 107.797935,148.162781 
	C109.402504,148.889099 110.466225,149.370590 112.221619,149.644211 
M172.216690,78.525307 
	C172.190689,79.280144 172.164673,80.034973 172.138672,80.789810 
	C172.983078,80.553574 173.827484,80.317329 174.671890,80.081085 
	C174.062836,79.459793 173.453796,78.838509 172.216690,78.525307 
M134.367416,138.637985 
	C134.851517,137.668167 135.335602,136.698334 135.819702,135.728516 
	C135.245178,135.580841 134.670670,135.433151 134.096146,135.285477 
	C133.966995,136.379959 133.837830,137.474442 134.367416,138.637985 
M166.440018,78.359688 
	C165.557251,77.973221 164.674484,77.586754 163.791718,77.200279 
	C163.695801,77.619385 163.599884,78.038498 163.503967,78.457603 
	C164.321976,78.566849 165.139969,78.676094 166.440018,78.359688 
M157.845154,77.605713 
	C157.202820,77.345901 156.560486,77.086090 155.918152,76.826279 
	C155.825104,77.372887 155.732071,77.919487 155.639038,78.466095 
	C156.318787,78.384903 156.998535,78.303719 157.845154,77.605713 
M194.731598,99.902458 
	C194.232269,99.957367 193.732925,100.012276 193.233597,100.067184 
	C193.348434,100.514153 193.463287,100.961128 193.578125,101.408096 
	C194.004471,101.105644 194.430832,100.803192 194.731598,99.902458 
M101.509644,159.141586 
	C101.206474,159.568695 100.903305,159.995819 100.600136,160.422943 
	C101.048775,160.536697 101.497414,160.650452 101.946053,160.764206 
	C101.999702,160.264267 102.053360,159.764328 101.509644,159.141586 
M128.798141,95.392380 
	C128.793930,95.786095 128.789734,96.179802 128.785522,96.573517 
	C128.948898,96.575050 129.254288,96.587532 129.255127,96.576515 
	C129.285355,96.184753 129.287094,95.790794 128.798141,95.392380 
M102.295830,215.432648 
	C102.010643,215.704849 101.725456,215.977066 101.440254,216.249268 
	C101.553108,216.367310 101.757896,216.594193 101.765564,216.587723 
	C102.066345,216.333649 102.349182,216.058350 102.295830,215.432648 
z"/>
<path fill="#06DA83" opacity="1.000000" stroke="none" 
	d="
M92.483185,230.117645 
	C90.818939,225.278687 96.581177,226.432373 98.068344,223.567459 
	C98.659027,222.429535 102.032410,222.556671 101.849663,219.488495 
	C101.834167,219.228256 104.174889,218.827652 105.561714,218.454376 
	C105.990570,216.372665 106.416451,214.305420 106.918251,211.869583 
	C102.290474,211.003708 103.943787,207.616547 103.963860,204.665939 
	C104.047417,192.384201 103.874428,180.099075 104.118492,167.821609 
	C104.161301,165.667938 105.878685,163.586151 106.589699,161.395538 
	C107.215958,159.466064 107.516388,157.430817 107.236763,155.011002 
	C110.325089,150.971542 114.569427,154.804489 118.985733,154.455170 
	C119.188980,154.904068 118.998871,155.285751 118.724838,155.360718 
	C108.608177,158.128723 107.594170,165.423309 108.049660,174.526016 
	C108.722733,187.976944 108.211327,201.487152 108.204529,214.972107 
	C108.203720,216.582779 108.204422,218.193451 108.204422,221.141449 
	C140.211884,202.847641 171.235291,185.116272 203.084534,166.912888 
	C203.084534,172.903519 203.085190,177.988647 203.084412,183.073776 
	C203.082108,198.057480 203.179108,213.042679 202.951950,228.022980 
	C202.923111,229.924316 201.703583,232.676025 200.180923,233.557816 
	C170.684540,250.639771 141.061386,267.502777 111.458267,284.400330 
	C110.903397,284.717041 110.275818,284.906372 108.795250,285.526794 
	C108.795250,263.912903 108.795250,242.815308 108.795250,220.604782 
	C102.742241,224.182159 97.783958,227.112534 92.483185,230.117645 
z"/>
<path fill="#112324" opacity="1.000000" stroke="none" 
	d="
M282.587952,139.649414 
	C292.143463,138.478592 298.937866,134.292633 302.223755,125.248871 
	C302.559479,124.324875 304.004150,123.279823 304.996735,123.212471 
	C308.598999,122.968079 312.227875,123.116112 315.874573,123.116112 
	C314.454407,139.885513 298.073669,152.598740 279.381531,151.841125 
	C258.299255,150.986633 242.369202,134.494675 241.726807,114.117676 
	C241.107605,94.476738 256.636292,76.170158 277.190399,74.948769 
	C297.765991,73.726105 314.239227,85.823395 315.847778,103.230911 
	C312.183228,103.230911 308.539734,103.382835 304.924194,103.131836 
	C303.930237,103.062836 302.455719,101.970604 302.157410,101.041153 
	C298.723969,90.343475 287.650330,85.242584 275.318115,87.245216 
	C264.823700,88.949387 256.665558,97.972656 255.114670,109.235794 
	C252.716934,126.648773 264.496033,139.913483 282.587952,139.649414 
z"/>
<path fill="#102324" opacity="1.000000" stroke="none" 
	d="
M281.491150,208.649338 
	C281.874329,210.363022 282.241882,211.966354 283.128662,213.194839 
	C291.114563,224.258087 299.195129,235.252960 307.237122,246.275818 
	C308.182129,247.571091 309.061890,248.913971 310.426849,250.895142 
	C305.426636,250.895142 301.157196,251.146133 296.946533,250.758438 
	C295.480774,250.623474 293.810211,249.173935 292.829773,247.874603 
	C285.846771,238.620178 279.018250,229.249191 272.125946,219.895432 
	C262.933746,228.290985 256.817719,237.484512 260.915710,250.616394 
	C255.782547,250.616394 251.709732,250.616394 247.288910,250.616394 
	C247.288910,226.278214 247.288910,201.919815 247.288910,177.307617 
	C251.462524,177.307617 255.534195,177.307617 259.976624,177.307617 
	C259.976624,189.832214 259.976624,202.236282 259.976624,215.676834 
	C261.429016,214.380661 262.280579,213.812439 262.887909,213.049713 
	C271.078278,202.763931 279.391144,192.569321 287.314087,182.080536 
	C290.069672,178.432526 292.847565,176.313873 297.595490,177.019028 
	C300.295959,177.420105 303.104797,177.091522 306.899445,177.091522 
	C298.089508,188.032104 289.902924,198.198624 281.491150,208.649338 
z"/>
<path fill="#102324" opacity="1.000000" stroke="none" 
	d="
M382.937988,144.884033 
	C382.932037,146.823425 382.932037,148.274872 382.932037,149.947510 
	C378.736389,149.947510 374.994659,149.947510 370.770233,149.947510 
	C370.770233,147.398529 370.770233,145.015839 370.770233,141.354523 
	C364.004852,149.964691 356.034363,153.174850 346.542206,151.574432 
	C327.273468,148.325623 317.742889,124.142860 328.437561,106.036530 
	C335.527100,94.033699 348.980164,89.385666 361.005310,95.209488 
	C364.449982,96.877747 367.281494,99.812035 370.659821,102.366730 
	C370.659821,100.108383 370.659821,97.604942 370.659821,94.935501 
	C374.963593,94.935501 378.708984,94.935501 382.943909,94.935501 
	C382.943909,111.552345 382.943909,127.974205 382.937988,144.884033 
M357.608246,139.576508 
	C358.826172,139.068680 360.097717,138.660187 361.253143,138.036606 
	C367.802032,134.502228 371.126312,127.102936 369.895355,118.936584 
	C368.927063,112.512711 363.317627,106.422478 357.150665,105.099464 
	C350.375885,103.646057 343.496826,106.330803 339.838989,112.165886 
	C335.790710,118.623749 335.693420,125.476791 339.397736,131.992493 
	C343.171021,138.629532 349.394012,140.797211 357.608246,139.576508 
z"/>
<path fill="#102223" opacity="1.000000" stroke="none" 
	d="
M667.173462,94.559814 
	C670.885132,97.072891 674.250549,99.395081 677.711914,101.783432 
	C677.711914,100.093773 677.711914,97.778214 677.711914,95.088989 
	C682.088928,95.088989 685.955078,95.088989 690.072266,95.088989 
	C690.072266,113.277290 690.072266,131.379089 690.072266,149.824860 
	C686.299622,149.824860 682.414917,149.824860 678.149414,149.824860 
	C678.149414,147.357605 678.149414,144.954514 678.149414,141.187485 
	C673.346252,147.812851 667.753052,151.015472 660.918457,151.770050 
	C654.001404,152.533707 647.708313,150.816162 642.249329,146.389023 
	C631.596008,137.749420 628.351746,120.520569 634.944458,107.659286 
	C641.297180,95.266090 652.856750,90.447472 667.173462,94.559814 
M652.825562,137.962128 
	C653.901794,138.389511 654.959106,138.874466 656.057312,139.235001 
	C663.685303,141.739365 671.992493,138.150070 675.737732,130.756302 
	C679.790649,122.755264 677.353027,112.762856 670.101562,107.652069 
	C663.682556,103.128021 654.711426,103.999413 649.155945,109.686653 
	C641.510803,117.513000 642.863708,130.166916 652.825562,137.962128 
z"/>
<path fill="#112425" opacity="1.000000" stroke="none" 
	d="
M486.797791,135.068512 
	C481.719055,121.946335 484.044067,109.048058 493.148926,100.688980 
	C502.407593,92.188644 513.165771,90.604492 524.656067,95.256447 
	C536.144714,99.907745 542.823242,113.008713 540.408813,125.892105 
	C526.119812,125.892105 511.729370,125.892105 497.021545,125.892105 
	C498.499725,133.124908 501.897522,138.177628 508.732544,139.916748 
	C514.969238,141.503632 520.598877,140.335358 524.710510,134.703400 
	C525.350403,133.826920 526.765625,133.110443 527.863403,133.048599 
	C531.504761,132.843430 535.164978,132.971085 538.849915,132.971085 
	C537.602173,142.045517 528.618591,149.724716 517.274902,151.631607 
	C504.921265,153.708252 493.258514,147.477325 486.797791,135.068512 
M524.983337,115.930031 
	C526.672485,115.915329 528.382202,116.262535 527.497375,113.357681 
	C525.810791,107.820236 518.655762,103.500801 511.512543,104.041451 
	C504.493286,104.572716 499.085724,109.320740 498.251892,115.924706 
	C506.882263,115.924706 515.481201,115.924706 524.983337,115.930031 
z"/>
<path fill="#102224" opacity="1.000000" stroke="none" 
	d="
M455.994476,226.284637 
	C446.180756,226.272430 436.865997,226.272430 426.940552,226.272430 
	C427.225708,232.095001 429.758331,236.190201 434.415375,238.993622 
	C439.618225,242.125595 448.054352,242.474869 451.177612,238.281311 
	C455.085388,233.034500 459.851654,233.890457 464.830841,233.845413 
	C466.107880,233.833847 467.386261,233.965866 468.718353,234.034714 
	C464.364136,248.053070 449.110870,255.794189 434.554565,251.589905 
	C419.023804,247.104156 410.487305,231.203949 414.782379,214.761871 
	C418.757294,199.545166 434.135223,190.561310 449.771057,194.321182 
	C463.568848,197.639099 472.879120,212.233414 469.855133,226.296860 
	C465.456573,226.296860 460.975037,226.296860 455.994476,226.284637 
M441.506012,216.616577 
	C446.717072,216.616577 451.928131,216.616577 457.264465,216.616577 
	C455.834991,209.104874 450.347137,204.868454 442.839722,204.772568 
	C434.878601,204.670914 429.315826,208.805679 427.613190,216.638031 
	C431.994324,216.638031 436.253876,216.638031 441.506012,216.616577 
z"/>
<path fill="#132526" opacity="1.000000" stroke="none" 
	d="
M357.650574,195.089905 
	C363.312622,195.517776 358.847198,200.244583 360.336578,201.278595 
	C365.660919,198.696564 370.346863,195.117599 375.516937,194.164505 
	C390.391541,191.422302 399.724884,198.895813 401.838715,214.130615 
	C402.134491,216.262405 402.084045,218.450592 402.089233,220.612930 
	C402.113037,230.560867 402.099731,240.508896 402.099731,250.694427 
	C397.742432,250.694427 393.820160,250.694427 389.279785,250.694427 
	C389.279785,242.338150 389.292175,234.066803 389.272247,225.795517 
	C389.266205,223.298737 389.269104,220.795319 389.097137,218.306747 
	C388.591553,210.991669 385.524719,207.106491 379.267395,205.683517 
	C373.127441,204.287231 366.531250,207.004349 363.695068,212.832901 
	C362.221954,215.860275 361.371307,219.452454 361.250793,222.825607 
	C360.924377,231.961151 361.138855,241.116013 361.138855,250.593567 
	C356.856628,250.593567 352.804413,250.593567 348.452393,250.593567 
	C348.452393,232.291046 348.452393,214.047852 348.452393,195.089371 
	C351.359741,195.089371 354.280457,195.089371 357.650574,195.089905 
z"/>
<path fill="#112324" opacity="1.000000" stroke="none" 
	d="
M718.252319,100.124100 
	C719.086792,100.420761 720.271362,100.629555 720.697632,100.155952 
	C724.698120,95.711044 729.707764,93.363693 735.576111,92.966698 
	C750.206116,91.976990 759.034546,100.205940 760.009460,115.607559 
	C760.104004,117.101616 760.110168,118.602951 760.111511,120.100952 
	C760.119995,129.904770 760.115906,139.708603 760.115906,149.839127 
	C755.863342,149.839127 751.823364,149.839127 747.337830,149.839127 
	C747.337830,141.582520 747.355774,133.463669 747.327026,125.344963 
	C747.318176,122.849083 747.265869,120.347610 747.087646,117.859138 
	C746.526733,110.027794 742.944641,105.698357 736.486572,104.923935 
	C728.819092,104.004486 722.207214,107.871063 720.241699,115.026642 
	C719.291443,118.486320 719.169128,122.235031 719.096130,125.861427 
	C718.936096,133.810989 719.046570,141.766022 719.046570,149.925201 
	C714.609436,149.925201 710.554199,149.925201 706.283325,149.925201 
	C706.283325,131.601273 706.283325,113.521187 706.283325,95.080948 
	C710.114258,95.080948 713.841980,95.080948 718.029358,95.080948 
	C718.099609,96.553932 718.175049,98.136803 718.252319,100.124100 
z"/>
<path fill="#122425" opacity="1.000000" stroke="none" 
	d="
M631.288330,214.875961 
	C636.603088,216.323059 641.570618,217.631287 646.576233,218.771896 
	C656.926392,221.130325 661.674255,225.984177 661.736389,234.434738 
	C661.798157,242.835983 656.533020,249.863403 647.080994,251.405075 
	C640.710205,252.444183 633.731689,252.174820 627.444885,250.700424 
	C619.539368,248.846390 615.041138,242.820724 614.171875,233.504349 
	C617.896973,233.504349 621.455872,233.373047 624.989563,233.612610 
	C625.715942,233.661850 626.551208,234.998627 626.991638,235.908722 
	C629.987061,242.098892 639.830627,244.733429 645.426941,240.776413 
	C649.662659,237.781403 649.343262,232.106018 644.625488,229.951752 
	C642.404297,228.937469 639.856995,228.624695 637.445862,228.042007 
	C634.218567,227.262070 630.883423,226.806213 627.765137,225.721100 
	C619.730591,222.925156 616.448792,218.098648 616.644714,209.992905 
	C616.829468,202.345657 620.830444,196.927582 628.681152,194.824448 
	C636.608398,192.700806 644.553894,192.872284 651.880920,197.188309 
	C656.945435,200.171600 659.568604,204.735046 659.979004,211.105927 
	C656.356689,211.105927 653.040161,211.251984 649.750610,211.017700 
	C648.752625,210.946625 647.503845,210.036133 646.927063,209.148209 
	C644.011230,204.659607 639.083313,202.786469 633.982666,204.455719 
	C629.219849,206.014420 628.065918,209.908051 631.288330,214.875961 
z"/>
<path fill="#122425" opacity="1.000000" stroke="none" 
	d="
M595.254211,137.224152 
	C593.862122,140.239532 593.035217,143.337021 591.100098,145.389740 
	C582.366089,154.654572 561.165039,154.253143 552.939148,144.534546 
	C550.425354,141.564575 549.285156,137.431946 547.162781,133.113159 
	C552.322876,133.113159 556.121643,133.113159 559.958435,133.113159 
	C563.716064,140.813049 570.180847,143.946320 577.518127,140.789001 
	C579.622192,139.883621 581.842468,136.882584 582.042358,134.665070 
	C582.202881,132.885071 579.757874,130.196259 577.801575,129.073395 
	C575.465454,127.732491 572.397888,127.706093 569.684387,126.972504 
	C566.170776,126.022598 562.564087,125.245010 559.230042,123.840881 
	C553.437134,121.401161 550.663879,116.752449 550.617920,110.443993 
	C550.570312,103.913399 552.854309,98.516876 558.921143,95.678383 
	C568.454407,91.218071 578.001160,91.550194 587.001892,97.253189 
	C591.476318,100.088219 593.633606,104.468887 594.042175,110.350487 
	C590.356934,110.350487 586.924133,110.467651 583.509521,110.270386 
	C582.625000,110.219284 581.528137,109.366051 580.987793,108.569817 
	C577.692749,103.714249 572.202209,101.608452 567.312622,104.216721 
	C565.473633,105.197701 563.645691,107.852615 563.511230,109.858284 
	C563.401489,111.494743 565.488770,114.263115 567.181458,114.845520 
	C571.702209,116.401054 576.551636,116.978088 581.240234,118.073441 
	C592.314880,120.660736 596.163513,125.835342 595.254211,137.224152 
z"/>
<path fill="#122425" opacity="1.000000" stroke="none" 
	d="
M552.035095,232.735382 
	C548.069275,218.868561 552.754211,205.274048 563.753723,198.050827 
	C573.960388,191.348282 588.947449,192.281006 598.228394,200.196411 
	C602.682007,203.994751 605.515747,208.791763 606.702332,214.839722 
	C603.184509,214.839722 599.732605,214.980423 596.304321,214.757965 
	C595.209167,214.686905 593.871155,213.899033 593.163635,213.020752 
	C587.750916,206.301483 581.908020,204.015503 575.003296,206.120834 
	C568.511230,208.100357 564.073303,213.906311 563.314209,221.413467 
	C562.505432,229.411621 567.170959,237.303375 574.192139,239.813446 
	C581.553650,242.445190 588.135620,239.959045 593.092957,232.915176 
	C593.793518,231.919693 595.312500,231.047256 596.520447,230.948792 
	C599.814331,230.680237 603.144348,230.856445 606.491028,230.856445 
	C605.102844,241.818558 595.562683,250.763138 583.953003,252.219696 
	C569.083313,254.085251 557.908325,247.378586 552.035095,232.735382 
z"/>
<path fill="#132526" opacity="1.000000" stroke="none" 
	d="
M448.914978,107.173553 
	C445.251465,106.123932 441.617188,105.560287 437.590332,104.935753 
	C437.590332,101.902275 437.590332,98.536781 437.590332,94.712181 
	C441.308014,94.712181 444.916138,94.712181 448.981567,94.712181 
	C448.981567,89.010246 448.981567,83.752808 448.981567,78.278419 
	C453.375610,78.278419 457.302582,78.278419 461.723419,78.278419 
	C461.723419,83.578056 461.723419,88.824364 461.723419,94.530106 
	C467.423920,94.530106 472.659576,94.530106 478.273682,94.530106 
	C478.273682,98.341858 478.273682,101.695656 478.273682,105.497543 
	C472.895111,105.497543 467.630951,105.497543 461.997070,105.497543 
	C461.997070,114.707947 461.788452,123.491402 462.079681,132.258255 
	C462.239990,137.084808 465.220337,139.451523 470.386841,139.718826 
	C473.003540,139.854202 475.632996,139.742493 478.455261,139.742493 
	C478.455261,143.335083 478.455261,146.435211 478.455261,149.905396 
	C473.232300,149.905396 468.065826,150.455856 463.062836,149.785736 
	C453.897980,148.558167 449.209076,142.430298 448.992493,132.141983 
	C448.820770,123.984436 448.949097,115.820572 448.914978,107.173553 
z"/>
<path fill="#102324" opacity="1.000000" stroke="none" 
	d="
M498.063202,215.081909 
	C498.063385,220.230713 498.038055,224.892227 498.069275,229.553391 
	C498.124512,237.790695 500.535950,240.166794 508.787201,240.180695 
	C510.604156,240.183762 512.421143,240.181122 514.754089,240.181122 
	C514.841309,241.956146 514.950928,243.539490 514.988281,245.124527 
	C515.027344,246.783768 514.997009,248.444656 514.997009,251.442627 
	C508.258545,250.775208 501.644958,250.753143 495.358215,249.308655 
	C489.753235,248.020798 486.438934,243.414093 485.998444,237.601196 
	C485.408875,229.821777 485.337097,222.002213 485.088226,214.198425 
	C485.009613,211.733154 485.075928,209.263260 485.075928,206.269653 
	C481.129852,206.269653 477.554840,206.269653 473.839722,206.269653 
	C473.839722,202.304825 473.839722,198.872101 473.839722,195.127930 
	C477.540741,195.127930 480.990601,195.127930 484.870300,195.127930 
	C484.870300,189.753021 484.870300,184.674744 484.870300,179.242599 
	C489.349457,179.242599 493.410553,179.242599 497.869324,179.242599 
	C497.869324,184.113571 497.869324,189.203064 497.869324,194.857346 
	C503.605499,194.857346 508.987030,194.857346 514.671875,194.857346 
	C514.671875,198.807648 514.671875,202.203522 514.671875,206.177429 
	C509.308563,206.177429 503.919281,206.177429 498.063202,206.177429 
	C498.063202,209.357254 498.063202,211.975861 498.063202,215.081909 
z"/>
<path fill="#112324" opacity="1.000000" stroke="none" 
	d="
M415.229248,111.406357 
	C413.917542,115.994949 412.146149,120.234810 411.883087,124.566292 
	C411.380554,132.840408 411.737122,141.166702 411.737122,149.820251 
	C407.376709,149.820251 403.342468,149.820251 399.065704,149.820251 
	C399.065704,131.620956 399.065704,113.515594 399.065704,95.067345 
	C402.848694,95.067345 406.728638,95.067345 410.910645,95.067345 
	C410.910645,97.517654 410.910645,99.954681 410.910645,102.391708 
	C411.169617,102.837425 411.428589,103.283142 411.687592,103.728859 
	C416.236755,95.018822 423.515167,93.860878 431.902832,95.033630 
	C431.902832,98.256775 431.902832,101.510658 431.902832,105.404938 
	C425.875305,105.465485 419.561676,105.418152 415.229248,111.406357 
z"/>
<path fill="#122425" opacity="1.000000" stroke="none" 
	d="
M538.887329,238.978271 
	C538.885864,243.103012 538.885864,246.732361 538.885864,250.635742 
	C534.535583,250.635742 530.603821,250.635742 526.285645,250.635742 
	C526.285645,232.371536 526.285645,213.998932 526.285645,195.344147 
	C530.223572,195.344147 534.162048,195.344147 538.888733,195.344147 
	C538.888733,209.652008 538.888733,224.067444 538.887329,238.978271 
z"/>
<path fill="#122424" opacity="1.000000" stroke="none" 
	d="
M619.860168,112.001633 
	C619.859619,124.795311 619.859619,137.089218 619.859619,149.777374 
	C615.593750,149.777374 611.554871,149.777374 607.201172,149.777374 
	C607.201172,131.688110 607.201172,113.484161 607.201172,94.994583 
	C611.257935,94.994583 615.305359,94.994583 619.860718,94.994583 
	C619.860718,100.610260 619.860718,106.056053 619.860168,112.001633 
z"/>
<path fill="#0D2021" opacity="1.000000" stroke="none" 
	d="
M319.835388,246.864700 
	C319.836517,229.432281 319.836517,212.484756 319.836517,195.313538 
	C324.154449,195.313538 328.066040,195.313538 332.233429,195.313538 
	C332.233429,213.767288 332.233429,232.029526 332.233429,250.892715 
	C329.069824,250.892715 325.944855,250.682861 322.861694,250.952103 
	C319.815491,251.218109 319.596100,249.593094 319.835388,246.864700 
z"/>
<path fill="#06DA83" opacity="1.000000" stroke="none" 
	d="
M59.457386,125.815109 
	C58.739750,127.065521 57.674000,128.384781 55.907661,129.943848 
	C54.805603,131.845016 54.067581,133.504013 54.055847,135.168137 
	C53.961018,148.613068 54.002708,162.058945 54.002686,175.504547 
	C54.002651,197.747879 54.010929,219.991211 53.994141,242.234543 
	C53.991402,245.866547 54.653477,249.003265 58.958565,249.960556 
	C59.026585,250.030991 59.161442,250.173004 59.161446,250.173004 
	C57.151802,251.502457 55.142159,252.831909 52.273396,254.729691 
	C52.273396,251.946503 52.273621,250.199173 52.273369,248.451828 
	C52.268112,211.520279 52.424351,174.587265 52.094265,137.658630 
	C52.040890,131.687119 53.315948,127.765953 59.457386,125.815109 
z"/>
<path fill="#132425" opacity="1.000000" stroke="none" 
	d="
M606.906738,83.009727 
	C606.907593,80.725990 606.907593,78.907997 606.907593,76.865387 
	C611.309509,76.865387 615.404663,76.865387 619.645691,76.865387 
	C619.645691,81.077667 619.645691,85.012810 619.645691,89.235847 
	C615.502258,89.235847 611.566040,89.235847 606.905945,89.235847 
	C606.905945,87.292000 606.905945,85.383728 606.906738,83.009727 
z"/>
<path fill="#152728" opacity="1.000000" stroke="none" 
	d="
M525.924927,182.069916 
	C525.917908,180.282410 525.917908,178.973541 525.917908,177.360229 
	C530.212830,177.360229 534.261169,177.360229 538.603149,177.360229 
	C538.603149,181.482025 538.603149,185.523209 538.603149,189.791489 
	C534.443115,189.791489 530.520325,189.791489 525.932007,189.791489 
	C525.932007,187.382339 525.932007,184.965439 525.924927,182.069916 
z"/>
<path fill="#102123" opacity="1.000000" stroke="none" 
	d="
M320.336182,177.423630 
	C324.354584,177.118103 328.004547,177.118103 332.073517,177.118103 
	C332.073517,181.219864 332.073517,185.266586 332.073517,189.663757 
	C328.233276,189.663757 324.224609,189.663757 319.967773,189.663757 
	C319.967773,185.614975 319.967773,181.672058 320.336182,177.423630 
z"/>
<path fill="#06DA83" opacity="1.000000" stroke="none" 
	d="
M148.000610,134.000000 
	C149.994568,133.784882 151.988541,133.569778 154.235291,133.327393 
	C156.855438,129.066406 161.364655,128.082489 166.749268,128.109543 
	C157.112671,133.847336 147.041321,139.531372 136.623901,145.269897 
	C136.885391,143.888443 137.492966,142.452484 138.100540,141.016541 
	C138.613098,141.145035 139.125671,141.273544 139.638245,141.402054 
	C139.428268,140.170273 139.218292,138.938507 139.376740,137.358566 
	C146.361862,139.331284 147.406403,138.950378 148.000610,134.000000 
z"/>
<path fill="#06DA83" opacity="1.000000" stroke="none" 
	d="
M200.444244,110.011131 
	C200.783707,107.457275 204.374832,104.692055 199.595947,102.284203 
	C199.226532,102.098068 199.241760,99.887489 199.595932,99.721313 
	C203.144394,98.056427 201.937637,94.917343 201.955826,92.303185 
	C202.045090,79.477211 201.871857,66.648369 202.069809,53.824837 
	C202.131607,49.820602 200.874451,47.796158 196.333191,47.958698 
	C197.942993,46.616341 199.969940,45.297737 202.595657,43.589615 
	C202.810135,45.496807 203.061798,46.700584 203.063522,47.904728 
	C203.090622,66.783234 203.146423,85.662277 202.989731,104.539497 
	C202.974731,106.345001 201.588364,108.139114 200.444244,110.011131 
z"/>
<path fill="#06DA83" opacity="1.000000" stroke="none" 
	d="
M139.608978,79.983093 
	C139.294724,82.570328 139.463043,85.949905 134.906555,84.747337 
	C134.354828,84.601723 133.247772,86.560287 132.398087,87.543640 
	C134.513611,88.863922 136.566086,90.312668 138.793060,91.405960 
	C139.292953,91.651367 140.403091,90.653717 142.595703,89.528885 
	C141.382751,92.450638 140.695816,94.105324 139.867615,96.100304 
	C133.887848,92.891464 128.710327,88.402359 121.304100,90.940216 
	C127.018181,87.289955 133.138596,83.660690 139.608978,79.983093 
z"/>
<path fill="#06DA83" opacity="1.000000" stroke="none" 
	d="
M120.061836,154.485748 
	C119.448746,152.051346 113.166496,151.284210 117.847794,147.025131 
	C118.891624,147.834702 119.789993,148.986847 120.917595,149.292068 
	C122.365273,149.683945 124.141090,149.804352 125.521164,149.318771 
	C128.896240,148.131226 132.125122,146.528076 135.829407,145.177185 
	C130.956314,148.310349 125.666672,151.358551 120.061836,154.485748 
z"/>
<path fill="#06DA83" opacity="1.000000" stroke="none" 
	d="
M65.799469,246.357788 
	C65.099472,243.347733 66.258919,241.802780 69.493179,240.844406 
	C72.835068,239.854111 75.778664,237.576828 78.989624,236.059647 
	C80.291107,235.444717 81.838852,235.350983 83.677048,235.041748 
	C78.093498,238.795731 72.107437,242.528030 65.799469,246.357788 
z"/>
<path fill="#06DA83" opacity="1.000000" stroke="none" 
	d="
M195.590424,47.963608 
	C192.869797,51.208176 190.105865,54.905640 186.583878,57.619186 
	C185.077469,58.779808 181.991501,57.890305 179.206390,57.872231 
	C184.273056,54.547428 189.756607,51.282745 195.590424,47.963608 
z"/>
<path fill="#06DA83" opacity="1.000000" stroke="none" 
	d="
M160.596985,67.990601 
	C160.894897,68.254219 160.966782,68.736931 160.777390,68.884636 
	C154.684875,73.636246 148.761292,78.706863 140.339905,79.969810 
	C146.706833,75.986435 153.477997,72.019974 160.596985,67.990601 
z"/>
<path fill="#06DA83" opacity="1.000000" stroke="none" 
	d="
M171.411606,126.037827 
	C171.963211,123.860733 172.868896,121.635483 173.427155,120.263832 
	C178.177872,119.094360 182.331024,118.071983 186.885345,117.080528 
	C182.112915,120.070847 176.939301,123.030251 171.411606,126.037827 
z"/>
<path fill="#06DA83" opacity="1.000000" stroke="none" 
	d="
M68.381851,120.757866 
	C69.306274,122.502419 69.891350,124.317184 70.761505,127.016220 
	C67.160065,126.629333 63.912910,126.280502 60.225632,125.867889 
	C62.537838,124.145439 65.290169,122.486763 68.381851,120.757866 
z"/>
<path fill="#06DA83" opacity="1.000000" stroke="none" 
	d="
M58.999855,243.000000 
	C59.180794,242.142975 59.361729,241.285965 59.595268,240.179764 
	C61.417137,242.382477 62.973450,244.264130 64.920334,246.289764 
	C63.483387,247.640182 61.655865,248.846619 59.494892,250.113037 
	C59.161442,250.173004 59.026585,250.030991 58.996422,249.535095 
	C58.977463,247.026123 58.988659,245.013062 58.999855,243.000000 
z"/>
<path fill="#06DA83" opacity="1.000000" stroke="none" 
	d="
M110.372620,96.735413 
	C111.166489,102.474953 111.166489,102.474953 102.224510,101.881691 
	C104.546059,100.152054 107.289543,98.479080 110.372620,96.735413 
z"/>
<path fill="#06DA83" opacity="1.000000" stroke="none" 
	d="
M101.481529,101.828705 
	C102.333427,103.909821 102.843407,106.049461 103.493279,108.776024 
	C100.771561,107.812935 98.150734,106.885544 95.122246,105.925385 
	C96.856262,104.557480 98.997932,103.222351 101.481529,101.828705 
z"/>
<path fill="#06DA83" opacity="1.000000" stroke="none" 
	d="
M80.535812,113.891411 
	C78.806572,116.404480 76.727577,118.973381 74.609146,121.591011 
	C73.268204,121.050186 71.969643,120.526451 70.310608,119.981750 
	C73.362122,117.956276 76.774094,115.951759 80.535812,113.891411 
z"/>
<path fill="#06DA83" opacity="1.000000" stroke="none" 
	d="
M178.458099,57.816074 
	C179.828186,59.068527 180.855881,60.378063 182.548157,62.534412 
	C178.649567,62.302475 175.561874,62.118778 172.003616,61.895058 
	C173.727264,60.527744 175.921494,59.200451 178.458099,57.816074 
z"/>
<path fill="#06DA83" opacity="1.000000" stroke="none" 
	d="
M120.573532,90.941345 
	C120.112656,95.598129 116.742104,96.243584 112.398132,95.990463 
	C114.731140,94.318695 117.477249,92.655998 120.573532,90.941345 
z"/>
<path fill="#06DA83" opacity="1.000000" stroke="none" 
	d="
M84.401428,235.024734 
	C83.549919,229.174789 88.323112,230.890991 91.748657,230.096207 
	C89.696014,231.749954 87.219444,233.357803 84.401428,235.024734 
z"/>
<path fill="#06DA83" opacity="1.000000" stroke="none" 
	d="
M192.334961,114.481583 
	C192.581482,110.096245 194.975479,108.503410 199.685867,110.036819 
	C197.623734,111.508972 195.166840,112.959656 192.334961,114.481583 
z"/>
<path fill="#06DA83" opacity="1.000000" stroke="none" 
	d="
M166.048767,67.666092 
	C164.592606,67.994568 163.185196,67.989128 161.355865,67.962318 
	C163.047485,66.632874 165.161026,65.324814 167.618927,63.964333 
	C167.341354,65.052010 166.719437,66.192101 166.048767,67.666092 
z"/>
<path fill="#06DA83" opacity="1.000000" stroke="none" 
	d="
M92.588959,106.950623 
	C93.333527,110.520805 90.830971,110.006371 88.213997,109.868858 
	C89.278160,108.869240 90.766495,107.931641 92.588959,106.950623 
z"/>
<path fill="#06DA83" opacity="1.000000" stroke="none" 
	d="
M188.283417,116.815948 
	C188.386932,115.200661 187.566025,112.150932 191.223541,114.535934 
	C190.433884,115.526962 189.504791,116.167007 188.283417,116.815948 
z"/>
<path fill="#06DA83" opacity="1.000000" stroke="none" 
	d="
M167.483948,128.172287 
	C168.202682,127.485779 169.248810,126.753181 170.686615,126.042137 
	C169.989304,126.751190 168.900299,127.438690 167.483948,128.172287 
z"/>
<path fill="#06DA83" opacity="1.000000" stroke="none" 
	d="
M87.493698,109.794067 
	C86.804993,110.500183 85.793465,111.251877 84.395386,112.000122 
	C85.062843,111.277664 86.116859,110.558655 87.493698,109.794067 
z"/>
<path fill="#06DA83" opacity="1.000000" stroke="none" 
	d="
M83.675842,112.028336 
	C83.191216,112.652832 82.387878,113.300919 81.219070,113.914047 
	C81.688110,113.270027 82.522621,112.660973 83.675842,112.028336 
z"/>
<path fill="#06DA83" opacity="1.000000" stroke="none" 
	d="
M170.716431,62.140053 
	C170.745956,62.360622 170.510696,62.591206 170.028229,62.871159 
	C170.004562,62.663708 170.228119,62.406883 170.716431,62.140053 
z"/>
<path fill="#06DA83" opacity="1.000000" stroke="none" 
	d="
M69.698853,119.977783 
	C69.737106,120.210594 69.501534,120.475151 68.991043,120.761513 
	C68.952431,120.525391 69.188736,120.267464 69.698853,119.977783 
z"/>
<path fill="#06DA83" opacity="1.000000" stroke="none" 
	d="
M111.711029,96.002243 
	C111.740036,96.235596 111.495811,96.489380 110.977249,96.754166 
	C110.947876,96.517662 111.192833,96.270164 111.711029,96.002243 
z"/>
<path fill="#06DA83" opacity="1.000000" stroke="none" 
	d="
M93.723572,106.200470 
	C93.839211,106.495979 93.630875,106.703705 93.126244,106.885544 
	C92.936562,106.565773 93.126442,106.316780 93.723572,106.200470 
z"/>
<path fill="#00DC81" opacity="1.000000" stroke="none" 
	d="
M58.603886,242.909134 
	C58.988659,245.013062 58.977463,247.026123 58.928402,249.464661 
	C54.653477,249.003265 53.991402,245.866547 53.994141,242.234543 
	C54.010929,219.991211 54.002651,197.747879 54.002686,175.504547 
	C54.002708,162.058945 53.961018,148.613068 54.055847,135.168137 
	C54.067581,133.504013 54.805603,131.845016 55.603436,130.093048 
	C56.333199,132.780014 56.944748,135.556473 56.955654,138.335312 
	C57.037205,159.109711 56.840725,179.886520 57.091831,200.658203 
	C57.172832,207.358841 58.816990,214.043762 58.853931,220.740799 
	C58.886246,226.599487 57.556915,232.456161 57.077847,238.333984 
	C56.959309,239.788391 57.805305,241.321396 58.603886,242.909134 
z"/>
<path fill="#00DC81" opacity="1.000000" stroke="none" 
	d="
M147.681244,133.975525 
	C147.406403,138.950378 146.361862,139.331284 139.372864,137.005814 
	C139.312347,135.897919 139.624084,134.794601 140.384506,133.345718 
	C142.221771,132.999893 143.610336,132.999649 144.998901,132.999390 
	C145.786560,133.316605 146.574219,133.633820 147.681244,133.975525 
z"/>
<path fill="#06DA83" opacity="1.000000" stroke="none" 
	d="
M165.959503,68.356110 
	C167.110352,67.780632 168.220703,67.561264 169.355652,67.337029 
	C169.289062,72.050354 168.006592,72.976257 161.972015,72.279915 
	C163.479767,70.917061 164.699387,69.814644 165.959503,68.356110 
z"/>
<path fill="#06DA83" opacity="1.000000" stroke="none" 
	d="
M172.165192,113.769402 
	C175.297897,118.628952 170.068787,117.103302 169.698029,117.946060 
	C170.889694,117.547935 166.951981,112.929993 172.165192,113.769402 
z"/>
<path fill="#06DA83" opacity="1.000000" stroke="none" 
	d="
M69.168228,226.314026 
	C71.350426,226.640533 73.483513,227.305374 76.449020,228.229691 
	C72.300453,230.934036 70.389595,229.790741 69.168228,226.314026 
z"/>
<path fill="#06DA83" opacity="1.000000" stroke="none" 
	d="
M144.935989,132.646149 
	C143.610336,132.999649 142.221771,132.999893 140.416595,133.000366 
	C139.465118,132.548615 138.930237,132.096619 138.395355,131.644623 
	C138.992981,131.199539 139.722183,130.274139 140.164673,130.395355 
	C141.785767,130.839462 143.311462,131.631744 144.935989,132.646149 
z"/>
<path fill="#06DA83" opacity="1.000000" stroke="none" 
	d="
M80.977051,228.784882 
	C79.852715,229.201065 78.736496,229.280487 77.620270,229.359924 
	C77.731789,228.486023 77.843307,227.612122 77.954826,226.738205 
	C78.964935,227.308182 79.975052,227.878159 80.977051,228.784882 
z"/>
<path fill="#06DA83" opacity="1.000000" stroke="none" 
	d="
M111.875778,149.748154 
	C110.466225,149.370590 109.402504,148.889099 107.797935,148.162781 
	C111.994820,146.866348 111.994820,146.866348 111.875778,149.748154 
z"/>
<path fill="#06DA83" opacity="1.000000" stroke="none" 
	d="
M172.530716,78.371262 
	C173.453796,78.838509 174.062836,79.459793 174.671890,80.081085 
	C173.827484,80.317329 172.983078,80.553574 172.138672,80.789810 
	C172.164673,80.034973 172.190689,79.280144 172.530716,78.371262 
z"/>
<path fill="#06DA83" opacity="1.000000" stroke="none" 
	d="
M134.038040,138.603455 
	C133.837830,137.474442 133.966995,136.379959 134.096146,135.285477 
	C134.670670,135.433151 135.245178,135.580841 135.819702,135.728516 
	C135.335602,136.698334 134.851517,137.668167 134.038040,138.603455 
z"/>
<path fill="#06DA83" opacity="1.000000" stroke="none" 
	d="
M166.199005,78.572510 
	C165.139969,78.676094 164.321976,78.566849 163.503967,78.457603 
	C163.599884,78.038498 163.695801,77.619385 163.791718,77.200279 
	C164.674484,77.586754 165.557251,77.973221 166.199005,78.572510 
z"/>
<path fill="#06DA83" opacity="1.000000" stroke="none" 
	d="
M157.761719,77.914124 
	C156.998535,78.303719 156.318787,78.384903 155.639038,78.466095 
	C155.732071,77.919487 155.825104,77.372887 155.918152,76.826279 
	C156.560486,77.086090 157.202820,77.345901 157.761719,77.914124 
z"/>
<path fill="#06DA83" opacity="1.000000" stroke="none" 
	d="
M194.794388,100.201599 
	C194.430832,100.803192 194.004471,101.105644 193.578125,101.408096 
	C193.463287,100.961128 193.348434,100.514153 193.233597,100.067184 
	C193.732925,100.012276 194.232269,99.957367 194.794388,100.201599 
z"/>
<path fill="#06DA83" opacity="1.000000" stroke="none" 
	d="
M101.808334,159.202988 
	C102.053360,159.764328 101.999702,160.264267 101.946053,160.764221 
	C101.497414,160.650452 101.048775,160.536697 100.600136,160.422943 
	C100.903305,159.995819 101.206474,159.568695 101.808334,159.202988 
z"/>
<path fill="#06DA83" opacity="1.000000" stroke="none" 
	d="
M129.045471,95.394760 
	C129.287094,95.790794 129.285355,96.184753 129.255127,96.576515 
	C129.254288,96.587532 128.948898,96.575050 128.785522,96.573517 
	C128.789734,96.179802 128.793930,95.786095 129.045471,95.394760 
z"/>
<path fill="#06DA83" opacity="1.000000" stroke="none" 
	d="
M102.465103,215.609238 
	C102.349182,216.058350 102.066345,216.333649 101.765564,216.587723 
	C101.757896,216.594193 101.553108,216.367310 101.440262,216.249268 
	C101.725456,215.977066 102.010643,215.704849 102.465103,215.609238 
z"/>
<path fill="#FBFCFC" opacity="1.000000" stroke="none" 
	d="
M357.211426,139.697876 
	C349.394012,140.797211 343.171021,138.629532 339.397736,131.992493 
	C335.693420,125.476791 335.790710,118.623749 339.838989,112.165886 
	C343.496826,106.330803 350.375885,103.646057 357.150665,105.099464 
	C363.317627,106.422478 368.927063,112.512711 369.895355,118.936584 
	C371.126312,127.102936 367.802032,134.502228 361.253143,138.036606 
	C360.097717,138.660187 358.826172,139.068680 357.211426,139.697876 
z"/>
<path fill="#FBFBFB" opacity="1.000000" stroke="none" 
	d="
M652.483887,137.790039 
	C642.863708,130.166916 641.510803,117.513000 649.155945,109.686653 
	C654.711426,103.999413 663.682556,103.128021 670.101562,107.652069 
	C677.353027,112.762856 679.790649,122.755264 675.737732,130.756302 
	C671.992493,138.150070 663.685303,141.739365 656.057312,139.235001 
	C654.959106,138.874466 653.901794,138.389511 652.483887,137.790039 
z"/>
<path fill="#F7F8F8" opacity="1.000000" stroke="none" 
	d="
M524.531738,115.927368 
	C515.481201,115.924706 506.882263,115.924706 498.251892,115.924706 
	C499.085724,109.320740 504.493286,104.572716 511.512543,104.041451 
	C518.655762,103.500801 525.810791,107.820236 527.497375,113.357681 
	C528.382202,116.262535 526.672485,115.915329 524.531738,115.927368 
z"/>
<path fill="#F0F1F1" opacity="1.000000" stroke="none" 
	d="
M441.009705,216.627304 
	C436.253876,216.638031 431.994324,216.638031 427.613190,216.638031 
	C429.315826,208.805679 434.878601,204.670914 442.839722,204.772568 
	C450.347137,204.868454 455.834991,209.104874 457.264465,216.616577 
	C451.928131,216.616577 446.717072,216.616577 441.009705,216.627304 
z"/>
</svg>